<svg aria-hidden="true" style="position: absolute; width: 0; height: 0; overflow: hidden;" version="1.1" xmlns="http://www.w3.org/2000/svg" xmlns:xlink="http://www.w3.org/1999/xlink">
<defs>
<symbol id="icon-user-solid-circle" viewBox="0 0 20 20">
<path d="M10 20c-5.523 0-10-4.477-10-10s4.477-10 10-10v0c5.523 0 10 4.477 10 10s-4.477 10-10 10v0zM7 6v2c0 1.657 1.343 3 3 3s3-1.343 3-3v0-2c0-1.657-1.343-3-3-3s-3 1.343-3 3v0zM3.35 14.44c1.456 2.155 3.89 3.553 6.65 3.553s5.194-1.398 6.632-3.525l0.018-0.028c-1.951-0.918-4.238-1.453-6.65-1.453s-4.699 0.536-6.748 1.495l0.098-0.041z"></path>
</symbol>
<symbol id="icon-shopping-cart" viewBox="0 0 20 20">
<path d="M13 17c0 1.104 0.894 2 2 2 1.104 0 2-0.896 2-2 0-1.106-0.896-2-2-2-1.106 0-2 0.894-2 2zM3 17c0 1.104 0.895 2 2 2 1.103 0 2-0.896 2-2 0-1.106-0.897-2-2-2-1.105 0-2 0.894-2 2zM6.547 12.172l11.068-3.162c0.211-0.061 0.385-0.289 0.385-0.51v-5.5h-14v-1.6c0-0.22-0.181-0.4-0.399-0.4h-3.202c-0.219 0-0.399 0.18-0.399 0.4v1.6h2l1.91 8.957 0.090 0.943v1.649c0 0.219 0.18 0.4 0.4 0.4h13.2c0.22 0 0.4-0.182 0.4-0.4v-1.549h-11.248c-1.15 0-1.174-0.551-0.205-0.828z"></path>
</symbol>
<symbol id="icon-home" viewBox="0 0 24 24">
<path d="M9.984 20.016h-4.969v-8.016h-3l9.984-9 9.984 9h-3v8.016h-4.969v-6h-4.031v6z"></path>
</symbol>
<symbol id="icon-credit_card" viewBox="0 0 24 24">
<path d="M20.016 8.016v-2.016h-16.031v2.016h16.031zM20.016 18v-6h-16.031v6h16.031zM20.016 3.984q0.844 0 1.406 0.586t0.563 1.43v12q0 0.844-0.563 1.43t-1.406 0.586h-16.031q-0.844 0-1.406-0.586t-0.563-1.43v-12q0-0.844 0.563-1.43t1.406-0.586h16.031z"></path>
</symbol>
<symbol id="icon-person" viewBox="0 0 24 24">
<path d="M12 14.016q2.531 0 5.273 1.102t2.742 2.883v2.016h-16.031v-2.016q0-1.781 2.742-2.883t5.273-1.102zM12 12q-1.641 0-2.813-1.172t-1.172-2.813 1.172-2.836 2.813-1.195 2.813 1.195 1.172 2.836-1.172 2.813-2.813 1.172z"></path>
</symbol>
<symbol id="icon-email" viewBox="0 0 24 24">
<path d="M20.016 8.016v-2.016l-8.016 5.016-8.016-5.016v2.016l8.016 4.969zM20.016 3.984q0.797 0 1.383 0.609t0.586 1.406v12q0 0.797-0.586 1.406t-1.383 0.609h-16.031q-0.797 0-1.383-0.609t-0.586-1.406v-12q0-0.797 0.586-1.406t1.383-0.609h16.031z"></path>
</symbol>
<symbol id="icon-dashboard" viewBox="0 0 24 24">
<path d="M12.984 3h8.016v6h-8.016v-6zM12.984 21v-9.984h8.016v9.984h-8.016zM3 21v-6h8.016v6h-8.016zM3 12.984v-9.984h8.016v9.984h-8.016z"></path>
</symbol>
<symbol id="icon-arrow_forward_ios" viewBox="0 0 24 24">
<path d="M5.859 4.125l2.156-2.109 9.984 9.984-9.984 9.984-2.156-2.109 7.922-7.875z"></path>
</symbol>
<symbol id="icon-arrow_back_ios" viewBox="0 0 24 24">
<path d="M11.672 3.891l-8.109 8.109 8.109 8.109-1.781 1.781-9.891-9.891 9.891-9.891z"></path>
</symbol>
<symbol id="icon-local_grocery_store" viewBox="0 0 24 24">
<path d="M17.016 18q0.797 0 1.383 0.609t0.586 1.406-0.586 1.383-1.383 0.586-1.406-0.586-0.609-1.383 0.609-1.406 1.406-0.609zM0.984 2.016h3.281l0.938 1.969h14.813q0.422 0 0.703 0.305t0.281 0.727q0 0.047-0.141 0.469l-3.563 6.469q-0.563 1.031-1.734 1.031h-7.453l-0.891 1.641-0.047 0.141q0 0.234 0.234 0.234h11.578v2.016h-12q-0.797 0-1.383-0.609t-0.586-1.406q0-0.469 0.234-0.938l1.359-2.484-3.609-7.594h-2.016v-1.969zM6.984 18q0.797 0 1.406 0.609t0.609 1.406-0.609 1.383-1.406 0.586-1.383-0.586-0.586-1.383 0.586-1.406 1.383-0.609z"></path>
</symbol>
<symbol id="icon-clear" viewBox="0 0 24 24">
<path d="M18.984 6.422l-5.578 5.578 5.578 5.578-1.406 1.406-5.578-5.578-5.578 5.578-1.406-1.406 5.578-5.578-5.578-5.578 1.406-1.406 5.578 5.578 5.578-5.578z"></path>
</symbol>
<symbol id="icon-launch" viewBox="0 0 24 24">
<path d="M14.016 3h6.984v6.984h-2.016v-3.563l-9.797 9.797-1.406-1.406 9.797-9.797h-3.563v-2.016zM18.984 18.984v-6.984h2.016v6.984q0 0.797-0.609 1.406t-1.406 0.609h-13.969q-0.844 0-1.43-0.586t-0.586-1.43v-13.969q0-0.844 0.586-1.43t1.43-0.586h6.984v2.016h-6.984v13.969h13.969z"></path>
</symbol>
<symbol id="icon-facebook2" viewBox="0 0 32 32">
<path d="M29 0h-26c-1.65 0-3 1.35-3 3v26c0 1.65 1.35 3 3 3h13v-14h-4v-4h4v-2c0-3.306 2.694-6 6-6h4v4h-4c-1.1 0-2 0.9-2 2v2h6l-1 4h-5v14h9c1.65 0 3-1.35 3-3v-26c0-1.65-1.35-3-3-3z"></path>
</symbol>
<symbol id="icon-youtube" viewBox="0 0 32 32">
<path d="M31.681 9.6c0 0-0.313-2.206-1.275-3.175-1.219-1.275-2.581-1.281-3.206-1.356-4.475-0.325-11.194-0.325-11.194-0.325h-0.012c0 0-6.719 0-11.194 0.325-0.625 0.075-1.987 0.081-3.206 1.356-0.963 0.969-1.269 3.175-1.269 3.175s-0.319 2.588-0.319 5.181v2.425c0 2.587 0.319 5.181 0.319 5.181s0.313 2.206 1.269 3.175c1.219 1.275 2.819 1.231 3.531 1.369 2.563 0.244 10.881 0.319 10.881 0.319s6.725-0.012 11.2-0.331c0.625-0.075 1.988-0.081 3.206-1.356 0.962-0.969 1.275-3.175 1.275-3.175s0.319-2.587 0.319-5.181v-2.425c-0.006-2.588-0.325-5.181-0.325-5.181zM12.694 20.15v-8.994l8.644 4.513-8.644 4.481z"></path>
</symbol>
<symbol id="icon-twitter" viewBox="0 0 32 32">
<path d="M32 7.075c-1.175 0.525-2.444 0.875-3.769 1.031 1.356-0.813 2.394-2.1 2.887-3.631-1.269 0.75-2.675 1.3-4.169 1.594-1.2-1.275-2.906-2.069-4.794-2.069-3.625 0-6.563 2.938-6.563 6.563 0 0.512 0.056 1.012 0.169 1.494-5.456-0.275-10.294-2.888-13.531-6.862-0.563 0.969-0.887 2.1-0.887 3.3 0 2.275 1.156 4.287 2.919 5.463-1.075-0.031-2.087-0.331-2.975-0.819 0 0.025 0 0.056 0 0.081 0 3.181 2.263 5.838 5.269 6.437-0.55 0.15-1.131 0.231-1.731 0.231-0.425 0-0.831-0.044-1.237-0.119 0.838 2.606 3.263 4.506 6.131 4.563-2.25 1.762-5.075 2.813-8.156 2.813-0.531 0-1.050-0.031-1.569-0.094 2.913 1.869 6.362 2.95 10.069 2.95 12.075 0 18.681-10.006 18.681-18.681 0-0.287-0.006-0.569-0.019-0.85 1.281-0.919 2.394-2.075 3.275-3.394z"></path>
</symbol>
<symbol id="icon-appleinc" viewBox="0 0 32 32">
<path d="M24.734 17.003c-0.040-4.053 3.305-5.996 3.454-6.093-1.88-2.751-4.808-3.127-5.851-3.171-2.492-0.252-4.862 1.467-6.127 1.467-1.261 0-3.213-1.43-5.28-1.392-2.716 0.040-5.221 1.579-6.619 4.012-2.822 4.897-0.723 12.151 2.028 16.123 1.344 1.944 2.947 4.127 5.051 4.049 2.026-0.081 2.793-1.311 5.242-1.311s3.138 1.311 5.283 1.271c2.18-0.041 3.562-1.981 4.897-3.931 1.543-2.255 2.179-4.439 2.216-4.551-0.048-0.022-4.252-1.632-4.294-6.473zM20.705 5.11c1.117-1.355 1.871-3.235 1.665-5.11-1.609 0.066-3.559 1.072-4.713 2.423-1.036 1.199-1.942 3.113-1.699 4.951 1.796 0.14 3.629-0.913 4.747-2.264z"></path>
</symbol>
<symbol id="icon-huawei" viewBox="0 0 32 32">
<path fill="#f00" style="fill: var(--color1, #f00)" d="M4.893 8.187c0 0-2.467 2.36-2.6 4.853v0.467c0.107 2.013 1.627 3.2 1.627 3.2 2.44 2.387 8.347 5.387 9.733 6.067 0 0 0.080 0.040 0.133-0.013l0.027-0.053v-0.053c-3.787-8.253-8.92-14.467-8.92-14.467zM12.867 24.8c-0.027-0.107-0.133-0.107-0.133-0.107l-9.84 0.347c1.067 1.907 2.867 3.373 4.747 2.933 1.28-0.333 4.213-2.373 5.173-3.067 0.080-0.067 0.053-0.12 0.053-0.107zM12.973 23.76c-4.32-2.92-12.693-7.387-12.693-7.387-0.2 0.613-0.267 1.2-0.28 1.733v0.093c0 1.427 0.533 2.427 0.533 2.427 1.067 2.253 3.12 2.933 3.12 2.933 0.933 0.4 1.867 0.413 1.867 0.413 0.16 0.027 5.867 0 7.387 0 0.067 0 0.107-0.067 0.107-0.067v-0.080c0-0.040-0.040-0.067-0.040-0.067zM12.080 4.253c-1.918 0.502-3.327 2.173-3.426 4.189l-0 0.011v0.547c0.040 0.8 0.213 1.4 0.213 1.4 0.88 3.867 5.147 10.2 6.067 11.533 0.067 0.067 0.133 0.040 0.133 0.040 0.048-0.021 0.080-0.068 0.080-0.122 0-0.004-0-0.008-0-0.011l0 0c1.413-14.133-1.48-17.893-1.48-17.893-0.427 0.027-1.587 0.307-1.587 0.307zM23.147 7.28c0 0-0.653-2.4-3.253-3.040 0 0-0.76-0.187-1.56-0.293 0 0-2.907 3.747-1.493 17.907 0.013 0.093 0.080 0.107 0.080 0.107 0.093 0.040 0.133-0.040 0.133-0.040 0.96-1.373 5.2-7.68 6.067-11.52 0 0 0.48-1.867 0.027-3.12zM19.253 24.707c0 0-0.093 0-0.12 0.067 0 0-0.013 0.093 0.040 0.133 0.933 0.68 3.8 2.667 5.173 3.067 0 0 0.213 0.067 0.573 0.080h0.187c0.92-0.027 2.533-0.493 4-3.013zM29.693 13.493c0.187-2.747-2.587-5.293-2.587-5.307 0 0-5.133 6.213-8.893 14.4 0 0-0.040 0.107 0.027 0.173l0.053 0.013h0.080c1.413-0.707 7.28-3.693 9.707-6.053 0 0 1.533-1.24 1.613-3.227zM31.72 16.347c0 0-8.373 4.493-12.693 7.4 0 0-0.067 0.053-0.040 0.147 0 0 0.040 0.080 0.093 0.080 1.547 0 7.413 0 7.56-0.027 0 0 0.76-0.027 1.693-0.387 0 0 2.080-0.667 3.16-3.027 0 0 0.973-1.933 0.227-4.187z"></path>
</symbol>
<symbol id="icon-samsung" viewBox="0 0 32 32">
<path fill="#1428a0" style="fill: var(--color2, #1428a0)" d="M26.422 13.708l0.061 3.591h-0.031l-1.039-3.591h-1.712v4.523h1.131l-0.061-3.713h0.031l1.115 3.713h1.635v-4.523zM4.89 13.708l-0.856 4.569h1.238l0.627-4.157h0.031l0.611 4.157h1.223l-0.841-4.569zM11.797 13.708l-0.565 3.484h-0.031l-0.565-3.484h-1.864l-0.092 4.569h1.146l0.031-4.111h0.015l0.764 4.111h1.161l0.764-4.111h0.031l0.030 4.111h1.146l-0.107-4.569zM2.109 16.978c0.046 0.107 0.031 0.26 0.015 0.336-0.031 0.153-0.137 0.306-0.443 0.306-0.29 0-0.458-0.168-0.458-0.413v-0.443h-1.223v0.351c0 1.024 0.81 1.329 1.666 1.329 0.825 0 1.513-0.29 1.62-1.039 0.061-0.397 0.015-0.657 0-0.749-0.214-0.963-1.956-1.238-2.078-1.773-0.015-0.092-0.015-0.183 0-0.245 0.031-0.153 0.138-0.306 0.413-0.306s0.428 0.168 0.428 0.413v0.275h1.146v-0.321c0-0.993-0.902-1.146-1.543-1.146-0.81 0-1.482 0.275-1.605 1.009-0.031 0.199-0.046 0.382 0.015 0.611 0.183 0.947 1.819 1.223 2.048 1.803zM16.978 16.978c0.046 0.107 0.030 0.245 0.015 0.336-0.031 0.153-0.138 0.306-0.443 0.306-0.29 0-0.458-0.168-0.458-0.413v-0.443h-1.223v0.351c0 1.009 0.795 1.314 1.651 1.314 0.825 0 1.498-0.275 1.605-1.039 0.061-0.397 0.015-0.642 0-0.749-0.183-0.947-1.91-1.238-2.032-1.757-0.015-0.092-0.015-0.183 0-0.245 0.031-0.153 0.137-0.306 0.413-0.306 0.26 0 0.428 0.168 0.428 0.413v0.275h1.131v-0.321c0-0.993-0.886-1.146-1.528-1.146-0.81 0-1.467 0.26-1.589 1.009-0.031 0.199-0.031 0.382 0.015 0.611 0.183 0.947 1.788 1.207 2.017 1.803zM20.829 17.589c0.321 0 0.413-0.214 0.443-0.336 0.015-0.046 0.015-0.122 0.015-0.168v-3.377h1.161v3.286c0 0.092 0 0.26-0.015 0.306-0.076 0.856-0.749 1.131-1.589 1.131s-1.513-0.275-1.589-1.131c0-0.046-0.015-0.214-0.015-0.306v-3.286h1.161v3.377c0 0.061 0 0.122 0.015 0.168 0 0.122 0.092 0.336 0.413 0.336zM30.365 17.543c0.336 0 0.443-0.214 0.474-0.336 0.015-0.046 0.015-0.122 0.015-0.168v-0.657h-0.474v-0.672h1.62v1.223c0 0.092 0 0.153-0.015 0.306-0.076 0.84-0.795 1.131-1.605 1.131s-1.528-0.29-1.605-1.131c-0.015-0.153-0.015-0.214-0.015-0.306v-1.925c0-0.077 0.015-0.229 0.015-0.306 0.107-0.856 0.795-1.131 1.605-1.131s1.513 0.275 1.605 1.131c0.015 0.137 0.015 0.306 0.015 0.306v0.153h-1.146v-0.26c0 0 0-0.107-0.015-0.168-0.015-0.107-0.107-0.336-0.458-0.336-0.336 0-0.428 0.214-0.458 0.336-0.015 0.061-0.015 0.138-0.015 0.214v2.094c0 0.061 0 0.122 0.015 0.168 0 0.122 0.122 0.336 0.443 0.336z"></path>
</symbol>
<symbol id="icon-search" viewBox="0 0 32 32">
<path d="M31.008 27.231l-7.58-6.447c-0.784-0.705-1.622-1.029-2.299-0.998 1.789-2.096 2.87-4.815 2.87-7.787 0-6.627-5.373-12-12-12s-12 5.373-12 12 5.373 12 12 12c2.972 0 5.691-1.081 7.787-2.87-0.031 0.677 0.293 1.515 0.998 2.299l6.447 7.58c1.104 1.226 2.907 1.33 4.007 0.23s0.997-2.903-0.23-4.007zM12 20c-4.418 0-8-3.582-8-8s3.582-8 8-8 8 3.582 8 8-3.582 8-8 8z"></path>
</symbol>
<symbol id="icon-menu" viewBox="0 0 32 32">
<path d="M2 6h28v6h-28zM2 14h28v6h-28zM2 22h28v6h-28z"></path>
</symbol>
<symbol id="icon-filter_list" viewBox="0 0 24 24">
<path d="M6 12.984v-1.969h12v1.969h-12zM3 6h18v2.016h-18v-2.016zM9.984 18v-2.016h4.031v2.016h-4.031z"></path>
</symbol>
</defs>
</svg>
